<svg xmlns="http://www.w3.org/2000/svg" xmlns:xlink="http://www.w3.org/1999/xlink" width="100%" zoomAndPan="magnify" viewBox="0 600 1400 300" height="100%" preserveAspectRatio="xMidYMid meet" version="1.0"><defs><g/><clipPath id="4221aaea60"><path d="M 127 641 L 269 641 L 269 833 L 127 833 Z M 127 641 " clip-rule="nonzero"/></clipPath><clipPath id="ff5b08db14"><path d="M 220.257812 628.226562 L 282.183594 664.679688 L 175.675781 845.621094 L 113.746094 809.167969 Z M 220.257812 628.226562 " clip-rule="nonzero"/></clipPath><clipPath id="a37ce9a65e"><path d="M 251.21875 646.453125 C 259.433594 651.285156 265.386719 659.183594 267.777344 668.410156 C 270.164062 677.632812 268.792969 687.429688 263.957031 695.640625 L 193.949219 814.578125 C 189.113281 822.789062 181.214844 828.746094 171.992188 831.132812 C 162.765625 833.523438 152.96875 832.148438 144.757812 827.316406 C 136.546875 822.480469 130.589844 814.582031 128.203125 805.359375 C 125.8125 796.132812 127.1875 786.339844 132.019531 778.125 L 202.03125 659.1875 C 206.863281 650.976562 214.761719 645.023438 223.988281 642.632812 C 233.210938 640.246094 243.007812 641.617188 251.21875 646.453125 Z M 251.21875 646.453125 " clip-rule="nonzero"/></clipPath><clipPath id="4acc3ea8cf"><path d="M 0 0 L 142 0 L 142 192 L 0 192 Z M 0 0 " clip-rule="nonzero"/></clipPath><clipPath id="ad28d9d8d5"><path d="M 93.257812 -12.773438 L 155.183594 23.679688 L 48.675781 204.621094 L -13.253906 168.167969 Z M 93.257812 -12.773438 " clip-rule="nonzero"/></clipPath><clipPath id="0eaea42d41"><path d="M 124.21875 5.453125 C 132.433594 10.285156 138.386719 18.183594 140.777344 27.410156 C 143.164062 36.632812 141.792969 46.429688 136.957031 54.640625 L 66.949219 173.578125 C 62.113281 181.789062 54.214844 187.746094 44.992188 190.132812 C 35.765625 192.523438 25.96875 191.148438 17.757812 186.316406 C 9.546875 181.480469 3.589844 173.582031 1.203125 164.359375 C -1.1875 155.132812 0.1875 145.339844 5.019531 137.125 L 75.03125 18.1875 C 79.863281 9.976562 87.761719 4.023438 96.988281 1.632812 C 106.210938 -0.753906 116.007812 0.617188 124.21875 5.453125 Z M 124.21875 5.453125 " clip-rule="nonzero"/></clipPath><clipPath id="8580c84068"><rect x="0" width="142" y="0" height="192"/></clipPath><clipPath id="331501eb66"><path d="M 54.308594 641.308594 L 128.339844 641.308594 L 128.339844 715.339844 L 54.308594 715.339844 Z M 54.308594 641.308594 " clip-rule="nonzero"/></clipPath><clipPath id="b26b6d5dfd"><path d="M 91.324219 641.308594 C 70.882812 641.308594 54.308594 657.878906 54.308594 678.324219 C 54.308594 698.765625 70.882812 715.339844 91.324219 715.339844 C 111.769531 715.339844 128.339844 698.765625 128.339844 678.324219 C 128.339844 657.878906 111.769531 641.308594 91.324219 641.308594 Z M 91.324219 641.308594 " clip-rule="nonzero"/></clipPath><clipPath id="bfa801b040"><path d="M 0.308594 0.308594 L 74.339844 0.308594 L 74.339844 74.339844 L 0.308594 74.339844 Z M 0.308594 0.308594 " clip-rule="nonzero"/></clipPath><clipPath id="b9254624ca"><path d="M 37.324219 0.308594 C 16.882812 0.308594 0.308594 16.878906 0.308594 37.324219 C 0.308594 57.765625 16.882812 74.339844 37.324219 74.339844 C 57.769531 74.339844 74.339844 57.765625 74.339844 37.324219 C 74.339844 16.878906 57.769531 0.308594 37.324219 0.308594 Z M 37.324219 0.308594 " clip-rule="nonzero"/></clipPath><clipPath id="f2d9df3b6c"><rect x="0" width="75" y="0" height="75"/></clipPath></defs><g clip-path="url(#4221aaea60)"><g clip-path="url(#ff5b08db14)"><g clip-path="url(#a37ce9a65e)"><g transform="matrix(1, 0, 0, 1, 127, 641)"><g clip-path="url(#8580c84068)"><g clip-path="url(#4acc3ea8cf)"><g clip-path="url(#ad28d9d8d5)"><g clip-path="url(#0eaea42d41)"><path fill="#2463eb" d="M 93.257812 -12.773438 L 155.183594 23.679688 L 48.675781 204.621094 L -13.253906 168.167969 Z M 93.257812 -12.773438 " fill-opacity="1" fill-rule="nonzero"/></g></g></g></g></g></g></g></g><g clip-path="url(#331501eb66)"><g clip-path="url(#b26b6d5dfd)"><g transform="matrix(1, 0, 0, 1, 54, 641)"><g clip-path="url(#f2d9df3b6c)"><g clip-path="url(#bfa801b040)"><g clip-path="url(#b9254624ca)"><path fill="#2463eb" d="M 0.308594 0.308594 L 74.339844 0.308594 L 74.339844 74.339844 L 0.308594 74.339844 Z M 0.308594 0.308594 " fill-opacity="1" fill-rule="nonzero"/></g></g></g></g></g></g><g fill="#000000" fill-opacity="1"><g transform="translate(322.395766, 810.272142)"><g><path d="M 78 0 L 56.953125 0 L 56.953125 -142.8125 L 5.828125 -142.8125 L 5.828125 -161.71875 L 129.25 -161.71875 L 129.25 -142.8125 L 78 -142.8125 Z M 78 0 "/></g></g></g><g fill="#000000" fill-opacity="1"><g transform="translate(443.47023, 810.272142)"><g><path d="M 131.046875 -63.625 C 131.046875 -62.59375 131.023438 -61.5 130.984375 -60.34375 C 130.941406 -59.195312 130.84375 -57.515625 130.6875 -55.296875 L 30.078125 -55.296875 C 30.953125 -47.210938 33.332031 -40.195312 37.21875 -34.25 C 41.101562 -28.300781 45.976562 -23.722656 51.84375 -20.515625 C 57.707031 -17.304688 63.972656 -15.703125 70.640625 -15.703125 C 78.796875 -15.703125 85.769531 -17.460938 91.5625 -20.984375 C 97.351562 -24.515625 101.59375 -29.6875 104.28125 -36.5 L 127.234375 -36.5 C 125.492188 -30.957031 122.898438 -25.765625 119.453125 -20.921875 C 116.003906 -16.085938 111.835938 -11.867188 106.953125 -8.265625 C 102.078125 -4.660156 96.609375 -1.828125 90.546875 0.234375 C 84.484375 2.296875 78.003906 3.328125 71.109375 3.328125 C 62.304688 3.328125 54.160156 1.679688 46.671875 -1.609375 C 39.179688 -4.898438 32.640625 -9.476562 27.046875 -15.34375 C 21.460938 -21.207031 17.125 -28.003906 14.03125 -35.734375 C 10.9375 -43.460938 9.390625 -51.765625 9.390625 -60.640625 C 9.390625 -69.523438 10.9375 -77.832031 14.03125 -85.5625 C 17.125 -93.289062 21.460938 -100.085938 27.046875 -105.953125 C 32.640625 -111.816406 39.179688 -116.410156 46.671875 -119.734375 C 54.160156 -123.066406 62.304688 -124.734375 71.109375 -124.734375 C 79.828125 -124.734375 87.851562 -123.109375 95.1875 -119.859375 C 102.519531 -116.609375 108.859375 -112.128906 114.203125 -106.421875 C 119.554688 -100.710938 123.703125 -94.191406 126.640625 -86.859375 C 129.578125 -79.523438 131.046875 -71.78125 131.046875 -63.625 Z M 31.03125 -73.375 L 110.109375 -73.375 C 109.796875 -77.65625 108.546875 -81.734375 106.359375 -85.609375 C 104.179688 -89.492188 101.304688 -92.921875 97.734375 -95.890625 C 94.171875 -98.867188 90.070312 -101.207031 85.4375 -102.90625 C 80.800781 -104.613281 75.90625 -105.46875 70.75 -105.46875 C 64.726562 -105.46875 58.984375 -104.238281 53.515625 -101.78125 C 48.046875 -99.332031 43.328125 -95.726562 39.359375 -90.96875 C 35.398438 -86.207031 32.625 -80.34375 31.03125 -73.375 Z M 31.03125 -73.375 "/></g></g></g><g fill="#000000" fill-opacity="1"><g transform="translate(567.874123, 810.272142)"><g><path d="M 123.4375 0 L 100.25 0 L 62.78125 -59.21875 L 40.078125 -34.125 L 40.078125 0 L 19.625 0 L 19.625 -167.421875 L 40.078125 -167.421875 L 40.078125 -56.71875 L 92.15625 -121.296875 L 117.25 -121.296875 L 77.765625 -72.65625 Z M 123.4375 0 "/></g></g></g><g fill="#000000" fill-opacity="1"><g transform="translate(679.079192, 810.272142)"><g><path d="M 68.015625 3.453125 C 59.691406 3.453125 51.984375 1.804688 44.890625 -1.484375 C 37.796875 -4.773438 31.59375 -9.351562 26.28125 -15.21875 C 20.96875 -21.082031 16.820312 -27.898438 13.84375 -35.671875 C 10.875 -43.441406 9.390625 -51.765625 9.390625 -60.640625 C 9.390625 -69.523438 10.875 -77.832031 13.84375 -85.5625 C 16.820312 -93.289062 20.96875 -100.085938 26.28125 -105.953125 C 31.59375 -111.816406 37.796875 -116.394531 44.890625 -119.6875 C 51.984375 -122.976562 59.65625 -124.625 67.90625 -124.625 C 75.195312 -124.625 81.972656 -123.429688 88.234375 -121.046875 C 94.492188 -118.671875 100.019531 -115.28125 104.8125 -110.875 C 109.613281 -106.476562 113.363281 -101.269531 116.0625 -95.25 L 116.0625 -121.296875 L 135.671875 -121.296875 L 135.671875 0 L 116.0625 0 L 116.0625 -25.796875 C 113.363281 -19.859375 109.613281 -14.6875 104.8125 -10.28125 C 100.019531 -5.882812 94.492188 -2.492188 88.234375 -0.109375 C 81.972656 2.265625 75.234375 3.453125 68.015625 3.453125 Z M 72.53125 -15.703125 C 78.476562 -15.703125 84.046875 -16.828125 89.234375 -19.078125 C 94.429688 -21.335938 98.972656 -24.507812 102.859375 -28.59375 C 106.742188 -32.675781 109.796875 -37.453125 112.015625 -42.921875 C 114.234375 -48.390625 115.34375 -54.296875 115.34375 -60.640625 C 115.34375 -66.898438 114.234375 -72.742188 112.015625 -78.171875 C 109.796875 -83.609375 106.722656 -88.367188 102.796875 -92.453125 C 98.867188 -96.535156 94.328125 -99.722656 89.171875 -102.015625 C 84.023438 -104.316406 78.519531 -105.46875 72.65625 -105.46875 C 66.707031 -105.46875 61.15625 -104.378906 56 -102.203125 C 50.851562 -100.023438 46.296875 -96.914062 42.328125 -92.875 C 38.367188 -88.832031 35.28125 -84.09375 33.0625 -78.65625 C 30.84375 -73.226562 29.734375 -67.222656 29.734375 -60.640625 C 29.734375 -53.898438 30.859375 -47.773438 33.109375 -42.265625 C 35.367188 -36.765625 38.460938 -32.03125 42.390625 -28.0625 C 46.316406 -24.101562 50.875 -21.050781 56.0625 -18.90625 C 61.257812 -16.769531 66.75 -15.703125 72.53125 -15.703125 Z M 72.53125 -15.703125 "/></g></g></g><g fill="#000000" fill-opacity="1"><g transform="translate(820.249242, 810.272142)"><g><path d="M 43.046875 0 L 22 0 L 22 -161.71875 L 88.34375 -161.71875 C 96.195312 -161.71875 103.394531 -160.410156 109.9375 -157.796875 C 116.476562 -155.179688 122.164062 -151.515625 127 -146.796875 C 131.832031 -142.078125 135.554688 -136.488281 138.171875 -130.03125 C 140.785156 -123.570312 142.09375 -116.535156 142.09375 -108.921875 C 142.09375 -100.992188 140.785156 -93.757812 138.171875 -87.21875 C 135.554688 -80.675781 131.867188 -75.023438 127.109375 -70.265625 C 122.359375 -65.515625 116.734375 -61.832031 110.234375 -59.21875 C 103.734375 -56.601562 96.597656 -55.296875 88.828125 -55.296875 L 43.046875 -55.296875 Z M 43.046875 -142.8125 L 43.046875 -74.3125 L 87.875 -74.3125 C 94.21875 -74.3125 99.882812 -75.816406 104.875 -78.828125 C 109.875 -81.847656 113.816406 -85.972656 116.703125 -91.203125 C 119.597656 -96.429688 121.046875 -102.296875 121.046875 -108.796875 C 121.046875 -113.472656 120.210938 -117.851562 118.546875 -121.9375 C 116.890625 -126.019531 114.535156 -129.628906 111.484375 -132.765625 C 108.429688 -135.898438 104.878906 -138.359375 100.828125 -140.140625 C 96.785156 -141.921875 92.390625 -142.8125 87.640625 -142.8125 Z M 43.046875 -142.8125 "/></g></g></g><g fill="#000000" fill-opacity="1"><g transform="translate(953.095636, 810.272142)"><g><path d="M 68.015625 3.453125 C 59.691406 3.453125 51.984375 1.804688 44.890625 -1.484375 C 37.796875 -4.773438 31.59375 -9.351562 26.28125 -15.21875 C 20.96875 -21.082031 16.820312 -27.898438 13.84375 -35.671875 C 10.875 -43.441406 9.390625 -51.765625 9.390625 -60.640625 C 9.390625 -69.523438 10.875 -77.832031 13.84375 -85.5625 C 16.820312 -93.289062 20.96875 -100.085938 26.28125 -105.953125 C 31.59375 -111.816406 37.796875 -116.394531 44.890625 -119.6875 C 51.984375 -122.976562 59.65625 -124.625 67.90625 -124.625 C 75.195312 -124.625 81.972656 -123.429688 88.234375 -121.046875 C 94.492188 -118.671875 100.019531 -115.28125 104.8125 -110.875 C 109.613281 -106.476562 113.363281 -101.269531 116.0625 -95.25 L 116.0625 -121.296875 L 135.671875 -121.296875 L 135.671875 0 L 116.0625 0 L 116.0625 -25.796875 C 113.363281 -19.859375 109.613281 -14.6875 104.8125 -10.28125 C 100.019531 -5.882812 94.492188 -2.492188 88.234375 -0.109375 C 81.972656 2.265625 75.234375 3.453125 68.015625 3.453125 Z M 72.53125 -15.703125 C 78.476562 -15.703125 84.046875 -16.828125 89.234375 -19.078125 C 94.429688 -21.335938 98.972656 -24.507812 102.859375 -28.59375 C 106.742188 -32.675781 109.796875 -37.453125 112.015625 -42.921875 C 114.234375 -48.390625 115.34375 -54.296875 115.34375 -60.640625 C 115.34375 -66.898438 114.234375 -72.742188 112.015625 -78.171875 C 109.796875 -83.609375 106.722656 -88.367188 102.796875 -92.453125 C 98.867188 -96.535156 94.328125 -99.722656 89.171875 -102.015625 C 84.023438 -104.316406 78.519531 -105.46875 72.65625 -105.46875 C 66.707031 -105.46875 61.15625 -104.378906 56 -102.203125 C 50.851562 -100.023438 46.296875 -96.914062 42.328125 -92.875 C 38.367188 -88.832031 35.28125 -84.09375 33.0625 -78.65625 C 30.84375 -73.226562 29.734375 -67.222656 29.734375 -60.640625 C 29.734375 -53.898438 30.859375 -47.773438 33.109375 -42.265625 C 35.367188 -36.765625 38.460938 -32.03125 42.390625 -28.0625 C 46.316406 -24.101562 50.875 -21.050781 56.0625 -18.90625 C 61.257812 -16.769531 66.75 -15.703125 72.53125 -15.703125 Z M 72.53125 -15.703125 "/></g></g></g><g fill="#000000" fill-opacity="1"><g transform="translate(1094.265634, 810.272142)"><g><path d="M 123.4375 0 L 100.25 0 L 62.78125 -59.21875 L 40.078125 -34.125 L 40.078125 0 L 19.625 0 L 19.625 -167.421875 L 40.078125 -167.421875 L 40.078125 -56.71875 L 92.15625 -121.296875 L 117.25 -121.296875 L 77.765625 -72.65625 Z M 123.4375 0 "/></g></g></g><g fill="#000000" fill-opacity="1"><g transform="translate(1205.470703, 810.272142)"><g><path d="M 40.078125 0 L 19.625 0 L 19.625 -167.421875 L 40.078125 -167.421875 L 40.078125 -111.1875 L 39.71875 -98.21875 C 42.175781 -103.445312 45.546875 -108.0625 49.828125 -112.0625 C 54.109375 -116.070312 59.160156 -119.1875 64.984375 -121.40625 C 70.804688 -123.625 77.128906 -124.734375 83.953125 -124.734375 C 100.046875 -124.734375 112.253906 -119.757812 120.578125 -109.8125 C 128.898438 -99.863281 133.0625 -85.179688 133.0625 -65.765625 L 133.0625 0 L 112.609375 0 L 112.609375 -65.40625 C 112.609375 -79.351562 109.59375 -89.535156 103.5625 -95.953125 C 97.539062 -102.378906 89.257812 -105.59375 78.71875 -105.59375 C 73.644531 -105.59375 68.789062 -104.582031 64.15625 -102.5625 C 59.519531 -100.539062 55.394531 -97.664062 51.78125 -93.9375 C 48.175781 -90.207031 45.320312 -85.785156 43.21875 -80.671875 C 41.125 -75.566406 40.078125 -69.921875 40.078125 -63.734375 Z M 40.078125 0 "/></g></g></g><g fill="#000000" fill-opacity="1"><g transform="translate(1342.597826, 810.272142)"><g><path d="M 29.734375 -144.953125 C 25.523438 -144.953125 22.171875 -146.21875 19.671875 -148.75 C 17.179688 -151.289062 15.9375 -154.382812 15.9375 -158.03125 C 15.9375 -161.601562 17.179688 -164.65625 19.671875 -167.1875 C 22.171875 -169.726562 25.5625 -171 29.84375 -171 C 34.207031 -171 37.632812 -169.726562 40.125 -167.1875 C 42.625 -164.65625 43.875 -161.601562 43.875 -158.03125 C 43.875 -154.382812 42.625 -151.289062 40.125 -148.75 C 37.632812 -146.21875 34.171875 -144.953125 29.734375 -144.953125 Z M 40.078125 0 L 19.625 0 L 19.625 -121.296875 L 40.078125 -121.296875 Z M 40.078125 0 "/></g></g></g></svg>